<svg width="27" height="24" viewBox="0 0 27 24" fill="none" xmlns="http://www.w3.org/2000/svg">
<g clip-path="url(#clip0_1_6)">
<path d="M20.5713 2L24.1427 5.57143L20.5714 9.14286" stroke="white" stroke-width="3"/>
<path d="M20.5713 14.8572L24.1427 18.4286L20.5714 22.0001" stroke="white" stroke-width="3"/>
<path d="M0.571289 6.1071C5.60376 6.1071 10.6362 8.51779 12.146 12.2679C13.6557 16.018 17.6817 18.4284 22.7142 18.4285" stroke="white" stroke-width="4"/>
<path fill-rule="evenodd" clip-rule="evenodd" d="M22.7144 7.57129C19.8296 7.57129 17.4868 8.45996 15.8906 9.85718C15.0366 9.10962 14.3965 8.21607 14.0015 7.23535C13.8999 6.98364 13.7876 6.73853 13.6646 6.49951C16.0459 4.60742 19.2402 3.57129 22.7144 3.57129V7.57129ZM13.6646 13.2146C12.5034 12.292 11.5352 11.166 10.8223 9.85718C10.625 10.2192 10.4473 10.5952 10.2905 10.9849C10.2563 11.0696 10.2197 11.154 10.1797 11.238C11.3286 12.0339 12.3447 13.0039 13.1138 14.1428C13.315 13.845 13.499 13.5356 13.6646 13.2146ZM10.1797 17.0476C9.6709 15.9756 8.69141 14.9624 7.30274 14.1428C7.12891 14.2454 6.94873 14.345 6.76221 14.4414C4.98438 15.3591 2.78467 15.8928 0.571289 15.8928V19.8928C3.39014 19.8928 6.22315 19.221 8.59717 17.9959C9.14404 17.7136 9.67481 17.3975 10.1797 17.0476Z" fill="white"/>
</g>
<defs>
<clipPath id="clip0_1_6">
<rect width="27" height="24" fill="white"/>
</clipPath>
</defs>
</svg>
